# xmcd
#
# Track frame offsets: 
#        150
#        22315
#        37469
#        58259
#        77895
#        99464
#        126593
#        142516
#        171248
#        193760
#        214636
#        233420
#        255785
#
# Disc length: 3668 seconds
#
# Revision: 4
# Processed by: cddbd v1.5.2PL0 Copyright (c) Steve Scherf et al.
# Submitted via: ExactAudioCopy v1.0b3
#
DISCID=b70e520d
DTITLE=Various Artist - Barrio Latino Vol.4 [CD1)
DYEAR=2003
DGENRE=Salsa
TTITLE0=Carlos Campos and Benjamin Franklin - Amor De Siempre
TTITLE1=Cool Water Feat. Time Passing - Kisses From Paris
TTITLE2=Cantoma - Etoile
TTITLE3=Ive Mendez - Nao Vou Fugir
TTITLE4=Chieko Kinbara Feat. Liliana Chachian - A Espera
TTITLE5=Fluff - Late Night Session
TTITLE6=Bond - Libertango
TTITLE7=B-Floor - Meu Amor (Chill Version)
TTITLE8=Carlos Campos and Claudio Di Pietra - Soledad
TTITLE9=Claudio Di Pietra and Carlos Campos - Zambo
TTITLE10=Polo Montañez - Un Montòn De Estrellas
TTITLE11=Orquesta Tabaco Y Ron - Sabor A Melao
TTITLE12=Bombòn - Juan Candela
EXTD=YEAR: 2003
EXTT0=
EXTT1=
EXTT2=
EXTT3=
EXTT4=
EXTT5=
EXTT6=
EXTT7=
EXTT8=
EXTT9=
EXTT10=
EXTT11=
EXTT12=
PLAYORDER=
